<svg xmlns="http://www.w3.org/2000/svg" xmlns:xlink="http://www.w3.org/1999/xlink" preserveAspectRatio="xMidYMid" width="150" height="22" viewBox="0 0 150 22">
    <g id="logo-chartmogul">
        <path class="mogul" fill="currentColor" d="M142.645,20.858 L142.645,7.042 L145.783,7.042 L145.783,18.165 L150.000,18.165 L150.000,20.858 L142.645,20.858 ZM132.682,21.168 C131.255,21.168 129.747,20.962 128.445,19.594 C127.100,18.185 126.937,16.549 126.937,15.225 L126.937,7.042 L130.073,7.042 L130.073,15.143 C130.073,15.743 130.116,16.757 130.787,17.463 C131.338,18.062 132.089,18.185 132.682,18.185 C133.272,18.185 134.026,18.062 134.576,17.463 C135.248,16.757 135.289,15.743 135.289,15.143 L135.289,7.042 L138.425,7.042 L138.425,15.225 C138.425,16.549 138.263,18.185 136.919,19.594 C135.615,20.962 134.109,21.168 132.682,21.168 ZM116.853,21.168 C115.223,21.168 113.472,20.900 111.883,19.242 C111.089,18.415 109.886,16.736 109.886,13.982 C109.886,11.725 110.701,9.923 111.843,8.742 C113.513,6.980 115.572,6.732 117.179,6.732 C118.298,6.732 119.727,6.919 120.989,7.768 C121.906,8.391 122.699,9.364 123.187,10.232 L120.356,11.788 C120.092,11.249 119.685,10.690 119.155,10.296 C118.544,9.839 117.850,9.632 117.078,9.632 C115.836,9.632 114.919,10.046 114.266,10.750 C113.513,11.558 113.105,12.739 113.105,14.024 C113.105,15.597 113.675,16.612 114.246,17.193 C115.042,18.020 115.956,18.270 116.996,18.270 C118.340,18.270 119.053,17.794 119.359,17.524 C119.461,17.440 120.071,16.903 120.338,15.888 L117.056,15.888 L117.056,13.319 L123.800,13.319 L123.800,13.464 C123.800,15.143 123.209,17.689 121.703,19.283 C120.194,20.880 118.462,21.168 116.853,21.168 ZM99.128,21.964 C94.670,21.964 91.056,18.289 91.056,13.757 C91.056,9.223 94.670,5.549 99.128,5.549 C103.586,5.549 107.201,9.223 107.201,13.757 C107.201,18.289 103.586,21.964 99.128,21.964 ZM99.128,8.442 C96.245,8.442 93.900,10.826 93.900,13.757 C93.900,16.687 96.245,19.072 99.128,19.072 C102.010,19.072 104.356,16.687 104.356,13.757 C104.356,10.826 102.010,8.442 99.128,8.442 ZM104.988,4.534 C103.332,3.276 101.358,2.611 99.286,2.611 C97.100,2.611 95.042,3.343 93.338,4.724 C93.101,4.916 92.819,5.009 92.536,5.009 C92.159,5.009 91.784,4.840 91.528,4.518 C91.085,3.952 91.177,3.129 91.733,2.678 C93.866,0.948 96.551,-0.006 99.286,-0.006 C101.917,-0.006 104.424,0.839 106.528,2.436 C107.098,2.869 107.215,3.688 106.789,4.268 C106.365,4.848 105.556,4.966 104.988,4.534 ZM84.387,12.614 L80.984,20.858 L79.885,20.858 L76.484,12.614 L75.403,20.858 L72.268,20.858 L74.445,7.042 L77.053,7.042 L80.436,15.307 L83.816,7.042 L86.423,7.042 L88.602,20.858 L85.467,20.858 L84.387,12.614 Z" />
        <path class="chart" d="M99.128,16.782 C97.486,16.782 96.156,15.426 96.156,13.757 C96.156,12.087 97.486,10.733 99.128,10.733 C99.141,10.733 99.153,10.738 99.167,10.738 C99.011,10.972 98.919,11.255 98.919,11.557 C98.919,12.363 99.561,13.017 100.354,13.017 C100.929,13.017 101.421,12.670 101.650,12.174 C101.932,12.635 102.102,13.174 102.102,13.757 C102.102,15.426 100.772,16.782 99.128,16.782 ZM66.258,20.858 L63.121,20.858 L63.121,9.736 L60.168,9.736 L60.168,7.042 L69.212,7.042 L69.212,9.736 L66.258,9.736 L66.258,20.858 ZM54.321,20.858 L50.655,15.411 L50.655,20.858 L47.518,20.858 L47.518,7.042 L52.284,7.042 C54.015,7.042 55.096,7.622 55.747,8.244 C56.319,8.804 56.929,9.797 56.929,11.330 C56.929,12.201 56.744,13.279 55.870,14.148 C55.402,14.603 54.729,15.018 53.976,15.203 L58.151,20.858 L54.321,20.858 ZM53.118,9.964 C52.609,9.571 51.795,9.528 51.389,9.528 L50.655,9.528 L50.655,13.319 L51.367,13.319 C51.936,13.319 52.713,13.257 53.241,12.719 C53.465,12.491 53.751,12.056 53.751,11.373 C53.751,10.585 53.383,10.172 53.118,9.964 ZM39.677,18.249 L34.542,18.249 L33.503,20.858 L30.244,20.858 L35.724,7.042 L38.596,7.042 L43.953,20.858 L40.694,20.858 L39.677,18.249 ZM37.149,11.165 L35.458,15.804 L38.820,15.804 L37.149,11.165 ZM23.542,14.998 L18.126,14.998 L18.126,20.858 L14.989,20.858 L14.989,7.042 L18.126,7.042 L18.126,12.305 L23.542,12.305 L23.542,7.042 L26.680,7.042 L26.680,20.858 L23.542,20.858 L23.542,14.998 ZM7.450,21.168 C4.946,21.168 3.256,20.301 2.115,19.160 C0.892,17.959 -0.003,16.136 -0.003,13.920 C-0.003,11.746 0.892,9.923 2.115,8.722 C3.316,7.540 5.069,6.732 7.188,6.732 C8.083,6.732 9.122,6.919 10.445,7.498 L10.445,11.185 C9.752,10.439 8.714,9.714 7.268,9.714 C6.128,9.714 5.210,10.089 4.497,10.793 C3.743,11.538 3.215,12.657 3.215,13.982 C3.215,15.411 3.784,16.425 4.395,17.027 C4.681,17.317 5.658,18.185 7.329,18.185 C8.142,18.185 9.243,17.959 10.445,16.757 L10.445,20.424 C9.243,21.046 8.267,21.168 7.450,21.168 Z" />
    </g>
</svg>
